<?xml version="1.0" standalone="no"?>
<!DOCTYPE svg PUBLIC "-//W3C//DTD SVG 20010904//EN"
 "http://www.w3.org/TR/2001/REC-SVG-20010904/DTD/svg10.dtd">
<svg version="1.0" xmlns="http://www.w3.org/2000/svg"
 width="500.000000pt" height="500.000000pt" viewBox="0 0 500.000000 500.000000"
 preserveAspectRatio="xMidYMid meet">
<metadata>
Created by potrace 1.14, written by Peter Selinger 2001-2017
</metadata>
<g transform="translate(0.000000,500.000000) scale(0.100000,-0.100000)"
fill="#000000" stroke="none">
<path d="M0 2500 l0 -2500 2500 0 2500 0 0 2500 0 2500 -2500 0 -2500 0 0
-2500z m2279 1215 c24 -3 56 -12 72 -21 26 -13 32 -13 59 1 16 8 58 19 92 24
132 18 263 -24 320 -103 l28 -39 0 -832 0 -833 -105 -66 c-58 -36 -107 -66
-110 -66 -3 0 -5 400 -5 889 0 991 6 916 -70 916 -76 0 -70 81 -70 -965 l0
-938 -105 -66 c-57 -36 -107 -66 -110 -66 -3 0 -5 449 -5 998 0 841 -2 1001
-14 1017 -10 14 -26 20 -56 20 -30 0 -46 -6 -56 -20 -12 -16 -14 -183 -14
-1066 l0 -1046 -97 -63 c-53 -34 -102 -64 -110 -67 -11 -4 -13 191 -13 1122 0
1110 0 1128 20 1160 20 32 68 69 125 94 33 15 128 30 160 25 11 -1 40 -5 64
-9z m1113 -11 c53 -17 130 -80 147 -121 8 -21 11 -257 9 -881 l-3 -853 -107
88 -107 88 -1 170 0 170 -70 38 -69 38 -3 -157 -3 -156 -107 -69 -108 -68 0
785 c0 866 -4 812 65 873 84 73 227 95 357 55z m663 11 c59 -10 134 -54 167
-99 l28 -39 0 -398 0 -397 -104 -71 c-58 -39 -107 -71 -110 -71 -3 0 -6 207
-6 459 l0 460 -22 15 c-12 9 -32 16 -43 16 -11 0 -31 -7 -43 -16 l-22 -15 0
-478 0 -478 23 -11 c12 -6 49 -13 83 -16 104 -9 206 -68 233 -134 8 -20 11
-165 9 -517 -3 -472 -4 -491 -23 -517 -42 -57 -57 -56 -129 2 l-66 53 0 478
c0 544 10 492 -95 502 -84 9 -146 32 -195 74 -72 62 -70 48 -70 567 0 304 4
474 11 493 25 67 118 128 217 142 57 8 80 8 157 -4z m-3130 -26 c63 -23 118
-67 141 -110 12 -24 14 -180 14 -1072 l0 -1044 -23 -34 c-31 -46 -106 -95
-167 -108 -28 -6 -127 -11 -220 -11 l-170 0 0 1200 0 1200 185 0 c163 0 191
-2 240 -21z m846 -2254 c-37 -85 -140 -135 -276 -135 -130 0 -234 51 -274 133
-21 43 -21 49 -21 974 l0 930 113 72 112 72 2 -1008 c3 -934 4 -1009 20 -1020
24 -18 83 -16 105 4 17 15 18 62 18 1067 l0 1051 108 68 107 68 3 -1117 c2
-1075 1 -1117 -17 -1159z m2129 514 c0 -257 -3 -370 -11 -367 -5 2 -57 41
-115 88 l-104 84 0 203 0 203 108 80 c59 44 110 80 115 80 4 0 7 -167 7 -371z
m565 -539 c40 -44 6 -113 -56 -113 -60 0 -91 71 -49 113 26 26 81 26 105 0z"/>
<path d="M3222 3578 c-12 -6 -25 -21 -27 -32 -3 -12 -4 -234 -3 -495 l3 -473
68 -39 67 -38 0 528 c0 431 -2 531 -13 540 -21 17 -69 22 -95 9z"/>
<path d="M730 2516 l0 -1066 46 0 c25 0 54 5 65 10 19 10 19 33 19 1049 0 876
-2 1040 -14 1050 -8 6 -37 14 -65 18 l-51 6 0 -1067z"/>
<path d="M4377 1402 c-34 -37 -11 -92 38 -92 24 0 55 33 55 57 0 19 -37 53
-58 53 -11 0 -26 -8 -35 -18z m61 -37 c0 -30 -2 -34 -15 -24 -11 10 -16 10
-23 0 -12 -20 -23 5 -16 35 5 17 13 24 30 24 21 0 24 -5 24 -35z"/>
<path d="M4405 1380 c-3 -5 -1 -10 4 -10 6 0 11 5 11 10 0 6 -2 10 -4 10 -3 0
-8 -4 -11 -10z"/>
</g>
</svg>
